<?xml version="1.0" standalone="no"?>
<!DOCTYPE svg PUBLIC "-//W3C//DTD SVG 20010904//EN"
 "http://www.w3.org/TR/2001/REC-SVG-20010904/DTD/svg10.dtd">
<svg version="1.0" xmlns="http://www.w3.org/2000/svg"
 width="260.000000pt" height="260.000000pt" viewBox="0 0 260.000000 260.000000"
 preserveAspectRatio="xMidYMid meet">
<metadata>
Created by potrace 1.11, written by Peter Selinger 2001-2013
</metadata>
<g transform="translate(0.000000,260.000000) scale(0.100000,-0.100000)"
fill="#000000" stroke="none">
<path d="M1317 2343 c-1 -1 -37 -3 -80 -4 -143 -4 -332 -46 -443 -100 -314
-149 -476 -458 -476 -904 1 -294 68 -530 198 -692 64 -78 106 -116 192 -170
162 -102 337 -145 597 -147 190 -1 252 5 375 35 148 37 313 129 395 221 39 43
85 105 85 113 0 4 8 19 18 33 41 60 82 211 89 333 l6 87 -291 1 c-271 1 -291
0 -290 -16 2 -37 -13 -114 -31 -155 -52 -121 -171 -188 -332 -188 -188 0 -297
85 -349 271 -16 60 -18 97 -16 292 3 233 9 272 60 366 62 115 210 174 376 149
151 -24 249 -133 267 -298 3 -30 7 -57 10 -60 2 -3 137 -5 299 -5 l295 0 -2
70 c-1 38 -5 84 -9 100 -4 17 -13 55 -20 85 -56 246 -254 446 -525 529 -38 12
-86 24 -105 27 -19 3 -37 7 -40 9 -11 6 -248 23 -253 18z"/>
</g>
</svg>
